<?xml version="1.0" encoding="UTF-8"?>
<svg width="64px" height="64px" viewBox="0 0 64 64" version="1.1" xmlns="http://www.w3.org/2000/svg" xmlns:xlink="http://www.w3.org/1999/xlink">
    <defs>
        <polygon id="path-1" points="3.0707 8 0.4407 8 0.4407 0.4993 3.0707 0.4993"></polygon>
        <polygon id="path-3" points="45.736 39.4594 45.736 0.2084 0 0.2084 0 39.4594 45.736 39.4594"></polygon>
    </defs>
    <g id="Page-1" stroke="none" stroke-width="1" fill="none" fill-rule="evenodd">
        <g id="矢量智能对象2" transform="translate(9.000000, 7.000000)">
            <g id="Group-3" transform="translate(21.000000, 41.791700)">
                <mask id="mask-2" fill="white">
                    <use xlink:href="#path-1"></use>
                </mask>
                <g id="Clip-2"></g>
                <path d="M1.7557,0.4993 C0.9677,0.4993 0.4407,0.9993 0.4407,1.7493 L0.4407,6.7503 C0.4407,7.5003 0.9677,8.0003 1.7557,8.0003 C2.5437,8.0003 3.0707,7.5003 3.0707,6.7503 L3.0707,1.7493 C3.0707,0.9993 2.5437,0.4993 1.7557,0.4993" id="Fill-1" fill="#000000" mask="url(#mask-2)"></path>
            </g>
            <path d="M14.8608,47.2915 L1.7008,47.2915 C0.9128,47.2915 0.3858,47.7915 0.3858,48.5415 C0.3858,49.2915 0.9128,49.7915 1.7008,49.7915 L14.8608,49.7915 C15.6488,49.7915 16.1758,49.2915 16.1758,48.5415 C16.1758,47.7915 15.6488,47.2915 14.8608,47.2915" id="Fill-4" fill="#000000"></path>
            <path d="M43.8105,47.2915 L30.6505,47.2915 C29.8625,47.2915 29.3355,47.7915 29.3355,48.5415 C29.3355,49.2915 29.8625,49.7915 30.6505,49.7915 L43.8105,49.7915 C44.5985,49.7915 45.1255,49.2915 45.1255,48.5415 C45.1255,47.7915 44.5985,47.2915 43.8105,47.2915" id="Fill-6" fill="#000000"></path>
            <g id="Group-10" transform="translate(0.000000, -0.208300)">
                <mask id="mask-4" fill="white">
                    <use xlink:href="#path-3"></use>
                </mask>
                <g id="Clip-9"></g>
                <path d="M22.7556,37.2514 C12.2446,37.2514 3.4446,34.5524 2.2206,30.8734 L2.2206,24.2494 C5.8866,27.4384 13.7096,29.6464 22.7556,29.6464 C31.5556,29.6464 39.6246,27.6844 43.5346,24.4944 L43.5346,30.8734 C41.8236,34.5524 33.2666,37.2514 22.7556,37.2514 L22.7556,37.2514 Z M2.2206,14.1914 C5.8866,17.3804 13.7096,19.5884 22.7556,19.5884 C31.5556,19.5884 39.3786,17.6264 43.2906,14.4364 L43.2906,21.8654 C40.9386,24.8024 33.0236,27.1934 22.7556,27.1934 C12.2446,27.1934 3.8346,24.8744 2.2206,21.2074 L2.2206,14.1914 Z M2.2206,8.7944 C3.6876,5.1144 12.2446,2.4164 22.7556,2.4164 C33.2666,2.4164 41.9956,5.1304 43.4626,8.8104 L43.4376,11.2474 C41.7246,14.6824 33.0236,17.3804 22.7556,17.3804 C12.2446,17.3804 3.8096,14.5854 2.2206,11.1634 L2.2206,8.7944 Z M45.7366,8.7944 C44.5126,3.8884 34.7336,0.2084 22.7556,0.2084 C10.7776,0.2084 1.2236,3.9274 -0.0004,8.8344 L0.0966,30.9414 C1.3206,35.8474 10.7776,39.4594 22.7556,39.4594 C34.7336,39.4594 44.5126,35.7794 45.7366,30.8734 L45.7366,8.7944 Z" id="Fill-8" fill="#000000" mask="url(#mask-4)"></path>
            </g>
        </g>
    </g>
</svg>