<?xml version="1.0" encoding="UTF-8"?>
<svg width="64px" height="64px" viewBox="0 0 64 64" version="1.1" xmlns="http://www.w3.org/2000/svg" xmlns:xlink="http://www.w3.org/1999/xlink">
    <defs>
        <polygon id="path-1" points="0.0003 51 53.167 51 53.167 0.1444 0.0003 0.1444 0.0003 51"></polygon>
    </defs>
    <g id="Page-1" stroke="none" stroke-width="1" fill="none" fill-rule="evenodd">
        <g id="矢量智能对象" transform="translate(5.000000, 7.000000)">
            <g id="Group-3" transform="translate(0.000000, -0.144200)">
                <mask id="mask-2" fill="white">
                    <use xlink:href="#path-1"></use>
                </mask>
                <g id="Clip-2"></g>
                <path d="M51.6263,36.4414 C51.6263,37.2474 50.9733,37.9004 50.1673,37.9004 L3.0003,37.9004 C2.1943,37.9004 1.5413,37.2474 1.5413,36.4414 L1.5413,3.1444 C1.5413,2.3384 2.1943,1.6854 3.0003,1.6854 L50.1673,1.6854 C50.9733,1.6854 51.6263,2.3384 51.6263,3.1444 L51.6263,36.4414 Z M23.8863,44.8354 L30.8213,44.8354 L30.8213,39.4414 L23.8863,39.4414 L23.8863,44.8354 Z M23.8863,46.3764 L30.8213,46.3764 L23.8863,46.3764 Z M32.3623,46.3764 L38.3463,46.3764 C38.5793,46.3764 38.9613,46.5964 39.1073,46.7344 L41.9243,49.4594 L11.6653,49.4594 L14.4853,46.7324 C14.6283,46.5964 15.0103,46.3764 15.2433,46.3764 L22.3453,46.3764 L32.3623,46.3764 Z M50.2483,0.1444 L2.9183,0.1444 C1.3063,0.1444 0.0003,1.4514 0.0003,3.0634 L0.0003,36.5234 C0.0003,38.1354 1.3073,39.4424 2.9183,39.4424 L22.3453,39.4424 L22.3453,44.8354 L15.2433,44.8354 C14.7213,44.8354 13.9483,45.2654 13.4833,45.7044 L10.0483,49.1254 C9.6793,49.4734 9.5523,49.9534 9.7233,50.3834 C9.8863,50.7924 10.2793,51.0004 10.7493,51.0004 L42.8393,51.0004 C43.3093,51.0004 43.7023,50.7404 43.8643,50.3314 C44.0353,49.9014 43.9083,49.3924 43.5383,49.0414 L40.1063,45.7174 C39.6413,45.2764 38.8683,44.8354 38.3463,44.8354 L32.3623,44.8354 L32.3623,39.4424 L50.2483,39.4424 C51.0223,39.4424 51.7653,39.1344 52.3123,38.5874 C52.8603,38.0394 53.1673,37.2974 53.1673,36.5234 L53.1673,3.0634 C53.1673,2.2894 52.8603,1.5464 52.3123,0.9994 C51.7653,0.4514 51.0223,0.1444 50.2483,0.1444 L50.2483,0.1444 Z" id="Fill-1" fill="#000000" mask="url(#mask-2)"></path>
            </g>
            <path d="M26.0266,22.8057 L22.5966,19.4917 L26.0266,16.1777 L29.4556,19.4917 L26.0266,22.8057 Z M40.5026,27.0707 C41.5766,27.0707 42.4516,27.9157 42.4516,28.9537 C42.4516,29.9927 41.5766,30.8367 40.5026,30.8367 C39.4276,30.8367 38.5546,29.9927 38.5546,28.9537 C38.5546,27.9157 39.4276,27.0707 40.5026,27.0707 L40.5026,27.0707 Z M12.2126,30.9177 C11.1146,30.9177 10.2216,30.0537 10.2216,28.9937 C10.2216,27.9337 11.1146,27.0707 12.2126,27.0707 C13.3096,27.0707 14.2026,27.9337 14.2026,28.9937 C14.2026,30.0537 13.3096,30.9177 12.2126,30.9177 L12.2126,30.9177 Z M12.2126,11.9127 C11.1146,11.9127 10.2216,11.0497 10.2216,9.9897 C10.2216,8.9287 11.1146,8.0657 12.2126,8.0657 C13.3096,8.0657 14.2026,8.9287 14.2026,9.9897 C14.2026,11.0497 13.3096,11.9127 12.2126,11.9127 L12.2126,11.9127 Z M40.5026,8.1457 C41.5766,8.1457 42.4516,8.9907 42.4516,10.0297 C42.4516,11.0677 41.5766,11.9127 40.5026,11.9127 C39.4276,11.9127 38.5546,11.0677 38.5546,10.0297 C38.5546,8.9907 39.4276,8.1457 40.5026,8.1457 L40.5026,8.1457 Z M40.5026,13.3717 C42.4096,13.3717 43.9606,11.8727 43.9606,10.0297 C43.9606,8.1867 42.4096,6.6867 40.5026,6.6867 C38.5956,6.6867 37.0436,8.1867 37.0436,10.0297 C37.0436,10.6387 37.2266,11.2037 37.5226,11.6957 L30.2536,18.7197 L26.0246,14.6327 L25.2256,15.4047 L25.2266,15.4057 L21.7966,18.7197 L14.9346,12.0877 C15.4136,11.5087 15.7116,10.7857 15.7116,9.9897 C15.7116,8.1247 14.1406,6.6067 12.2116,6.6067 C10.2826,6.6067 8.7116,8.1237 8.7116,9.9897 C8.7116,11.8537 10.2826,13.3717 12.2116,13.3717 C12.9086,13.3717 13.5566,13.1687 14.1026,12.8277 L20.9976,19.4917 L14.1026,26.1557 C13.5356,25.8007 12.8806,25.6117 12.2116,25.6117 C10.2816,25.6117 8.7116,27.1287 8.7116,28.9937 C8.7116,30.8597 10.2826,32.3767 12.2116,32.3767 C14.1406,32.3767 15.7116,30.8597 15.7116,28.9937 C15.7116,28.1977 15.4136,27.4737 14.9346,26.8957 L21.7966,20.2637 L25.2266,23.5777 L25.2266,23.5787 L26.0256,24.3507 L30.2546,20.2637 L37.5226,27.2867 C37.2136,27.7887 37.0476,28.3647 37.0436,28.9537 C37.0436,30.7967 38.5956,32.2967 40.5026,32.2967 C42.4096,32.2967 43.9606,30.7967 43.9606,28.9537 C43.9606,27.1107 42.4096,25.6117 40.5026,25.6117 C39.6756,25.6127 38.8756,25.9067 38.2456,26.4417 L31.0526,19.4917 L38.2456,12.5417 C38.8756,13.0767 39.6756,13.3707 40.5026,13.3717 L40.5026,13.3717 Z" id="Fill-4" fill="#000000"></path>
        </g>
    </g>
</svg>