<?xml version="1.0" encoding="UTF-8"?>
<svg width="64px" height="64px" viewBox="0 0 64 64" version="1.1" xmlns="http://www.w3.org/2000/svg" xmlns:xlink="http://www.w3.org/1999/xlink">
    <defs>
        <polygon id="path-1" points="60.277 0.4595 60.277 51.9995 0 51.9995 0 0.4595 60.277 0.4595"></polygon>
    </defs>
    <g id="Page-1" stroke="none" stroke-width="1" fill="none" fill-rule="evenodd">
        <g id="矢量智能对象3" transform="translate(2.000000, 6.000000)">
            <g id="Group-3" transform="translate(0.000000, -0.459200)">
                <mask id="mask-2" fill="white">
                    <use xlink:href="#path-1"></use>
                </mask>
                <g id="Clip-2"></g>
                <path d="M9.618,34.2935 C5.507,34.2935 2.166,37.7805 2.166,42.0635 C2.166,46.3465 5.507,49.8345 9.618,49.8345 C13.73,49.8345 17.07,46.3465 17.07,42.0635 C17.07,37.7805 13.729,34.2935 9.618,34.2935 M9.618,51.9995 C4.32,51.9995 0,47.5455 0,42.0635 C0,36.5815 4.32,32.1275 9.618,32.1275 C14.917,32.1275 19.236,36.5815 19.236,42.0635 C19.236,47.5455 14.929,51.9995 9.618,51.9995 M50.611,34.2935 C46.475,34.2935 43.122,37.7805 43.122,42.0635 C43.122,46.3465 46.487,49.8345 50.611,49.8345 C54.747,49.8345 58.099,46.3465 58.099,42.0635 C58.099,37.7805 54.747,34.2935 50.611,34.2935 M50.611,51.9995 C45.275,51.9995 40.944,47.5455 40.944,42.0635 C40.944,36.5815 45.275,32.1275 50.611,32.1275 C55.946,32.1275 60.278,36.5815 60.278,42.0635 C60.278,47.5455 55.934,51.9995 50.611,51.9995 M28.364,16.7825 C23.335,16.7825 19.236,21.0165 19.236,26.2295 C19.236,31.4425 23.335,35.6765 28.364,35.6765 C33.394,35.6765 37.493,31.4425 37.493,26.2295 C37.493,21.0165 33.406,16.7825 28.364,16.7825 M28.364,37.8425 C22.136,37.8425 17.07,32.6295 17.07,26.2295 C17.07,19.8295 22.136,14.6175 28.364,14.6175 C34.593,14.6175 39.659,19.8295 39.659,26.2295 C39.659,32.6295 34.605,37.8425 28.364,37.8425 M48.885,2.6125 C45.704,2.6125 43.122,5.3045 43.122,8.6085 C43.122,11.9125 45.704,14.6045 48.885,14.6045 C52.067,14.6045 54.649,11.9125 54.649,8.6085 C54.649,5.3045 52.067,2.6125 48.885,2.6125 M48.885,16.7825 C44.505,16.7825 40.944,13.1245 40.944,8.6215 C40.944,4.1185 44.505,0.4595 48.885,0.4595 C53.266,0.4595 56.827,4.1185 56.827,8.6215 C56.827,13.1245 53.266,16.7825 48.885,16.7825 M11.307,2.6125 C8.125,2.6125 5.543,5.3045 5.543,8.6085 C5.543,11.9125 8.125,14.6045 11.307,14.6045 C14.488,14.6045 17.07,11.9125 17.07,8.6085 C17.07,5.3045 14.488,2.6125 11.307,2.6125 M11.307,16.7825 C6.926,16.7825 3.365,13.1245 3.365,8.6215 C3.365,4.1185 6.926,0.4595 11.307,0.4595 C15.687,0.4595 19.248,4.1185 19.248,8.6215 C19.248,13.1245 15.675,16.7825 11.307,16.7825" id="Fill-1" fill="#000000" mask="url(#mask-2)"></path>
            </g>
            <path d="M17.4747,11.6433 L23.0237,16.7083 L21.5557,18.3173 L16.0067,13.2523 L17.4747,11.6433 Z M19.4787,31.3703 L21.0187,32.9103 L17.0377,36.8903 L15.4977,35.3503 L19.4787,31.3703 Z M37.2577,31.3713 L43.3317,37.4453 L41.7917,38.9863 L35.7177,32.9123 L37.2577,31.3713 Z M42.7587,11.6813 L44.2997,13.2213 L37.2647,20.2553 L35.7247,18.7153 L42.7587,11.6813 Z" id="Fill-4" fill="#000000"></path>
        </g>
    </g>
</svg>