<?xml version="1.0" encoding="UTF-8"?>
<svg width="64px" height="64px" viewBox="0 0 64 64" version="1.1" xmlns="http://www.w3.org/2000/svg" xmlns:xlink="http://www.w3.org/1999/xlink">
    <defs>
        <polygon id="path-1" points="31.8838 49 0 49 0 0.3644 31.8838 0.3644"></polygon>
        <polygon id="path-3" points="0.4378 0.867 32.3146744 0.867 32.3146744 53.0958 0.4378 53.0958 0.4378 0.867"></polygon>
    </defs>
    <g id="Page-1" stroke="none" stroke-width="1" fill="none" fill-rule="evenodd">
        <g id="矢量智能对象1" transform="translate(9.000000, 4.000000)">
            <path d="M15.9419,53.4383 C14.7999,53.4383 13.8779,52.5103 13.8779,51.3683 C13.8779,50.2253 14.7999,49.2983 15.9419,49.2983 C17.0839,49.2983 18.0059,50.2253 18.0059,51.3683 C18.0119,52.5103 17.0899,53.4383 15.9419,53.4383" id="Fill-1" fill="#000000"></path>
            <path d="M24.0028,34.8067 L8.2218,34.8067 C7.7968,34.8067 7.4498,34.4597 7.4498,34.0347 L7.4498,34.0217 C7.4498,33.5967 7.7968,33.2497 8.2218,33.2497 L24.0028,33.2497 C24.4278,33.2497 24.7748,33.5967 24.7808,34.0217 L24.7808,34.0347 C24.7748,34.4597 24.4278,34.8067 24.0028,34.8067" id="Fill-3" fill="#000000"></path>
            <path d="M9.1415,26.2651 C8.2405,26.2651 7.5075,25.5321 7.5075,24.6311 C7.5075,23.7301 8.2405,22.9971 9.1415,22.9971 C9.3215,22.9971 9.5015,23.0291 9.6755,23.0871 L11.9335,20.5071 C11.8175,20.2751 11.7535,20.0311 11.7535,19.7801 C11.7535,18.8791 12.4865,18.1461 13.3875,18.1461 C14.2885,18.1461 15.0215,18.8791 15.0215,19.7801 C15.0215,19.8831 15.0085,19.9861 14.9835,20.1021 L17.9355,22.0701 C18.2065,21.8841 18.5215,21.7871 18.8495,21.7871 C18.9915,21.7871 19.1325,21.8071 19.2875,21.8521 L21.6805,18.7701 C21.5385,18.5191 21.4615,18.2421 21.4615,17.9591 C21.4615,17.0591 22.1945,16.3251 23.0955,16.3251 C23.9965,16.3251 24.7295,17.0591 24.7295,17.9591 C24.7295,18.8601 23.9965,19.5931 23.0955,19.5931 C22.9545,19.5931 22.8125,19.5741 22.6585,19.5291 L20.2525,22.6111 C20.3935,22.8621 20.4705,23.1381 20.4705,23.4211 C20.4705,24.3221 19.7375,25.0551 18.8365,25.0551 C17.9355,25.0551 17.2025,24.3221 17.2025,23.4211 C17.2025,23.3181 17.2155,23.2161 17.2415,23.1001 L14.2945,21.1311 C14.0245,21.3181 13.7095,21.4141 13.3815,21.4141 C13.2005,21.4141 13.0205,21.3821 12.8535,21.3241 L10.5955,23.9041 C10.7115,24.1361 10.7755,24.3801 10.7755,24.6311 C10.7695,25.5381 10.0355,26.2651 9.1415,26.2651" id="Fill-5" fill="#000000"></path>
            <path d="M24.0028,42.083 L8.2218,42.083 C7.7968,42.083 7.4498,41.736 7.4498,41.311 L7.4498,41.298 C7.4498,40.874 7.7968,40.526 8.2218,40.526 L24.0028,40.526 C24.4278,40.526 24.7748,40.874 24.7808,41.298 L24.7808,41.311 C24.7748,41.736 24.4278,42.083 24.0028,42.083" id="Fill-7" fill="#000000"></path>
            <path d="M24.0028,38.4481 L8.2218,38.4481 C7.7968,38.4481 7.4498,38.1011 7.4498,37.6761 L7.4498,37.6631 C7.4498,37.2391 7.7968,36.8911 8.2218,36.8911 L24.0028,36.8911 C24.4278,36.8911 24.7748,37.2391 24.7808,37.6631 L24.7808,37.6761 C24.7748,38.1011 24.4278,38.4481 24.0028,38.4481" id="Fill-9" fill="#000000"></path>
            <g id="Group-13" transform="translate(0.000000, 7.133200)">
                <mask id="mask-2" fill="white">
                    <use xlink:href="#path-1"></use>
                </mask>
                <g id="Clip-12"></g>
                <path d="M3.1298,1.7904 C2.1908,1.7904 1.4258,2.5554 1.4258,3.4944 L1.4258,45.8704 C1.4258,46.8094 2.1908,47.5744 3.1298,47.5744 L28.7548,47.5744 C29.6938,47.5744 30.4588,46.8094 30.4588,45.8704 L30.4588,3.4944 C30.4588,2.5554 29.6938,1.7904 28.7548,1.7904 L3.1298,1.7904 Z M28.7548,49.0004 L3.1298,49.0004 C1.4048,49.0004 -0.0002,47.5954 -0.0002,45.8704 L-0.0002,3.4944 C-0.0002,1.7694 1.4048,0.3644 3.1298,0.3644 L28.7548,0.3644 C30.4798,0.3644 31.8838,1.7694 31.8838,3.4944 L31.8838,45.8704 C31.8838,47.5954 30.4798,49.0004 28.7548,49.0004 L28.7548,49.0004 Z" id="Fill-11" fill="#000000" mask="url(#mask-2)"></path>
            </g>
            <path d="M7.1789,12.87 C6.2399,12.87 5.4749,13.635 5.4749,14.574 L5.4749,44.646 C5.4749,45.585 6.2399,46.35 7.1789,46.35 L25.3849,46.35 C26.3249,46.35 27.0889,45.585 27.0889,44.646 L27.0889,14.574 C27.0889,13.635 26.3249,12.87 25.3849,12.87 L7.1789,12.87 Z M25.3849,47.775 L7.1789,47.775 C5.4539,47.775 4.0489,46.371 4.0489,44.646 L4.0489,14.574 C4.0489,12.849 5.4539,11.444 7.1789,11.444 L25.3849,11.444 C27.1109,11.444 28.5149,12.849 28.5149,14.574 L28.5149,44.646 C28.5149,46.371 27.1109,47.775 25.3849,47.775 L25.3849,47.775 Z" id="Fill-14" fill="#000000"></path>
            <g id="Group-18" transform="translate(13.000000, 0.133200)">
                <mask id="mask-4" fill="white">
                    <use xlink:href="#path-3"></use>
                </mask>
                <g id="Clip-17"></g>
                <path d="M18.8418,53.0958 L17.7628,52.1638 C17.9008,52.0028 18.0038,51.8198 18.0688,51.6198 L30.8118,12.2188 C31.0788,11.3938 30.6258,10.5068 29.8008,10.2398 L5.4688,2.3698 C4.6458,2.1038 3.7558,2.5558 3.4888,3.3808 L1.7848,8.3198 L0.4378,7.8548 L2.1368,2.9288 C2.6408,1.3698 4.3378,0.5048 5.9078,1.0118 L30.2398,8.8828 C31.8118,9.3908 32.6778,11.0848 32.1688,12.6578 L19.4258,52.0568 C19.3018,52.4408 19.1058,52.7898 18.8418,53.0958" id="Fill-16" fill="#000000" mask="url(#mask-4)"></path>
            </g>
            <path d="M31.8784,44.2232 L30.5214,43.7822 L39.8714,14.9972 C40.0014,14.5992 39.9674,14.1732 39.7764,13.7992 C39.5844,13.4252 39.2594,13.1472 38.8594,13.0192 L30.6254,10.3552 L31.0644,8.9982 L39.2984,11.6612 C40.0604,11.9082 40.6814,12.4372 41.0454,13.1502 C41.4104,13.8622 41.4754,14.6742 41.2284,15.4372 L31.8784,44.2232 Z" id="Fill-19" fill="#000000"></path>
            <path d="M25.9281,8.8364 L20.1131,6.9554 C19.2831,6.6874 18.4001,7.1444 18.1331,7.9674 L16.7761,7.5284 C17.2861,5.9564 18.9781,5.0954 20.5521,5.5984 L26.3671,7.4794 L25.9281,8.8364 Z" id="Fill-21" fill="#000000"></path>
        </g>
    </g>
</svg>